<svg xmlns="http://www.w3.org/2000/svg" width="363.96" height="360.675" viewBox="0 0 363.96 360.675">
  <path id="Path_1269" data-name="Path 1269" d="M368.927,337.59A18.008,18.008,0,0,0,353.666,324.4a1.488,1.488,0,0,0-1.252.446,1.473,1.473,0,0,0-.133-.2c-6.824-8.149-19.081-11.8-30.5-9.087A42.447,42.447,0,0,0,301.9,327.1a21.277,21.277,0,0,0-2.371,1.909,1.475,1.475,0,0,0-.458,1.138c-1.173,1.367-2.3,2.8-3.369,4.322-6.807,9.7-10.411,20.889-12.79,29.554-7.019,25.58-9.671,54.073-8.1,87.106,1.127,23.8,4.316,47.62,7.81,70.931l-1.359-3.8c-11.992-33.5-24.291-67.909-33.4-103.211a1.567,1.567,0,0,0,.258.05,1.494,1.494,0,0,0,1.068-.446,1.454,1.454,0,0,0,.356-.66,2.174,2.174,0,0,0,1.2.367,2.126,2.126,0,0,0,.748-.135,2.006,2.006,0,0,0,1.191-1.244c8.424-5.786,14.093-16.152,15.578-28.587,1.339-11.209-.61-22.367-2.495-33.159A1.5,1.5,0,0,0,264.333,350h-.057a1.5,1.5,0,0,0-1.453,1.133c-1.818,7.212-6.105,13.639-10.251,19.855-3.914,5.87-8.325,12.494-10.373,19.91-.321-1.536-.654-3.07-.961-4.609-1.463-7.416-2.609-14.013-3.507-20.172-1.156-7.789-2.061-15.63-2.763-23.494,7.744-2,14.855-7.994,19.57-16.545,4.263-7.73,6.234-16.33,8.141-24.647a1.5,1.5,0,0,0-2.438-1.474,276.767,276.767,0,0,0-26.421,25.9q-.708-14.82-.34-29.636c.045-.017.09-.026.133-.047,7.358-3.6,14.964-7.324,20.976-13.231,6.873-6.755,10.195-15.442,8.885-23.237a18.751,18.751,0,0,0-7.8-12.047,15.4,15.4,0,0,0-8.231-2.813c1.041-4.477,1.5-9.017-.893-12.894-3.669-5.952-11.692-6.433-18.263-6.189-7.973.291-17.638,1.571-21.638,8.951-1.92,3.54-1.98,7.635-1.7,11.287a1.509,1.509,0,0,0-.408.006c-6.313,1.082-9.681,8.265-8.864,14.3.8,5.922,4.619,10.971,7.684,15.028,4.151,5.5,8.443,11.179,13.223,16.4,4.081,4.454,7.857,6.645,11.474,6.645a8.934,8.934,0,0,0,1.668-.174c.2.194.393.4.6.59.032.03.074.042.108.069q-.28,15.105.543,30.242c-.072.084-.147.167-.22.251a1.5,1.5,0,0,0,.156,2.116,1.484,1.484,0,0,0,.217.151q.174,2.815.388,5.627c-.316.468-.637.931-.945,1.4l0,0a1.972,1.972,0,0,0,.6,2.786,2.15,2.15,0,0,0,.715.286q1.077,12.465,2.89,24.822c.9,6.205,2.058,12.851,3.532,20.319.877,4.4,1.833,8.791,2.828,13.167a23.832,23.832,0,0,0,2.226,9.415c3.155,12.818,6.744,25.512,10.619,38.083A54.936,54.936,0,0,0,216.1,426.207a1.5,1.5,0,0,0-1.353,2.4c5.734,7.572,11.663,15.4,18.654,22.141,7.93,7.641,16.252,12.848,24.738,15.474a1.481,1.481,0,0,0,.443.068,1.5,1.5,0,0,0,1.187-.593c5.972,18.112,12.357,35.972,18.66,53.581l6.161,17.206-40.2-56.026c-10.924-15.221-21.989-30.623-33.473-45.8a1.492,1.492,0,0,0,1.367-1.039c2.662-8.47,3.109-18.278,1.328-29.153-1.57-9.587-4.641-18.909-7.612-27.925a1.5,1.5,0,0,0-1.288-1.024,1.481,1.481,0,0,0-1.453.774,54.94,54.94,0,0,0-3.963,43.3c-8.145-10.344-16.545-20.509-25.286-30.373a23.848,23.848,0,0,0-6.563-7.27c-7.674-8.349-15.605-16.461-23.888-24.219q-9.108-8.524-18.77-16.49a2.109,2.109,0,0,0-.073-1.8A1.977,1.977,0,0,0,123,338.417c-.562-.015-1.123-.014-1.685-.02q-14.944-12.087-30.965-22.719c0-.041,0-.081,0-.121-.043-.275-.1-.546-.146-.82,2.992-2.948,3.7-7.7,2.146-14.5-1.581-6.9-3.818-13.661-5.981-20.2-1.6-4.829-3.583-10.839-8-14.863-4.5-4.1-12.317-5.411-16.8-.836a1.448,1.448,0,0,0-.224.345c-2.845-2.308-6.249-4.593-10.27-5.028-8.274-.884-14.589,5.925-19.667,12.712-3.94,5.274-8.1,12.148-5.285,18.548,1.822,4.159,5.821,6.366,10.1,8.061a15.413,15.413,0,0,0-2.364,8.374,18.753,18.753,0,0,0,5.475,13.267c4.361,4.239,10.706,6.521,17.7,6.521a34.051,34.051,0,0,0,6.466-.631c8.326-1.608,16.019-5.925,22.807-9.734.044-.025.082-.057.123-.086q12.259,8.021,23.948,16.946c-11.665-1.693-18.956,1.069-26.6,3.981a93.032,93.032,0,0,1-9.5,3.218,1.5,1.5,0,0,0-.172,2.844c7.943,3.16,16.157,6.428,24.908,7.309q2.117.211,4.179.212c8.084,0,15.391-2.434,20.556-6.906q9.1,7.569,17.742,15.625c6.121,5.733,12.042,11.673,17.824,17.748-7.279-2.523-15.2-2.655-22.231-2.765-7.467-.118-15.188-.239-22.163-2.852a1.5,1.5,0,0,0-1.579,2.474c7.806,7.68,15.877,15.621,25.866,20.893a44.947,44.947,0,0,0,20.8,5.5,32.386,32.386,0,0,0,11.577-2.061,2.092,2.092,0,0,0,2.6-1.989,1.469,1.469,0,0,0,.75.066,1.5,1.5,0,0,0,1.1-.851c23.785,27.457,45.083,57.128,65.894,86.125l32.083,44.707c-23.736-22.1-50.584-40.58-77.8-57.842a1.48,1.48,0,0,0-.587-.753,20.64,20.64,0,0,0-3.47-1.81c-8.156-5.133-16.333-10.17-24.456-15.173l-5.709-3.515c4.256-7.265,4.2-17.334-.234-26.552-4.061-8.444-10.7-15.033-17.129-21.4a1.5,1.5,0,0,0-2.554,1c-.318,7.495-.646,15.246.544,22.857a44.385,44.385,0,0,0,5.229,15.389L97.895,408.337a11.356,11.356,0,0,0,5.35-9.4c.209-4.2-1.46-8.177-2.733-10.807C94.765,376.26,85.093,367.09,75.5,358.948a1.5,1.5,0,0,0-2.132,2.093c3.692,4.521,4.661,10.778,5.07,15.091.153,1.621.259,3.29.362,4.9a66.955,66.955,0,0,0,1.545,12.238,27.173,27.173,0,0,0,2.034,5.506l-2.391-1.473a1.5,1.5,0,0,0-1.041-.868c-.192-.044-.385-.087-.577-.128Q61.427,385.881,44.49,375.451a1.482,1.482,0,0,0-.872-.7l-.009-.034a48.812,48.812,0,0,0-36.77-34.792,1.5,1.5,0,0,0-1.812,1.608,39.81,39.81,0,0,0,37.288,36.105l28.344,17.454A69.312,69.312,0,0,0,22.2,408.433a1.5,1.5,0,0,0,.415,2.625c8.751,2.953,16.563,4.414,23.677,4.414a47.83,47.83,0,0,0,6.918-.49c10.805-1.578,20.023-7.232,25.008-15.237l9.713,5.98a15.265,15.265,0,0,0,2.783,1.714q32.483,20,64.963,40c.027.074.052.148.079.221a2.083,2.083,0,0,0,1.966,1.38,2.17,2.17,0,0,0,.463-.056l7.96,4.9q8.687,5.349,17.427,10.774a50.652,50.652,0,0,0-12.61,1.143c-1.591.32-3.185.677-4.78,1.033-6.165,1.377-12.539,2.8-18.7,1.971a1.5,1.5,0,0,0-1.118,2.673,75.923,75.923,0,0,0,39.71,15.579c1.055.093,2.166.163,3.3.163a16.537,16.537,0,0,0,6.769-1.246,9.7,9.7,0,0,0,5.508-6.173c1.088.259,2.175.526,3.256.808a2.189,2.189,0,0,0,.544.07,2.086,2.086,0,0,0,1.763-.977c27.543,18.028,54.234,37.7,77.111,61.541l1.567,2.183a1.5,1.5,0,0,0,1.219.625,1.514,1.514,0,0,0,.189-.029L302.11,585.4a1.5,1.5,0,0,0,2.825-1.012L287.9,536.8c-4.306-28.023-8.729-56.979-10.1-85.819-.264-5.569-.4-11-.419-16.31.011,0,.023,0,.034,0a1.5,1.5,0,0,0,1.334-.811c1.892-3.664,5.22-8.413,10.334-10.229,3.414-1.212,7.975-.678,10.674,1.978a1.479,1.479,0,0,0-.365.443c-2.576,4.8-1.01,10.359,1.314,13.958,2.548,3.946,6.4,6.835,9.807,9.383a1.5,1.5,0,0,0,2.088-2.115,1.7,1.7,0,0,1-.231-1.44,3.159,3.159,0,0,1,1.585-2.03c1.364-.668,3.194-.6,5.59.2a1.5,1.5,0,0,0,1.506-2.515c-.047-.044-.092-.089-.141-.144a2.163,2.163,0,0,1,.132-3c.037-.025.073-.048.108-.068A2.169,2.169,0,0,1,324,438.9c.048.074.1.149.143.225a1.5,1.5,0,0,0,2.561-1.562c-.067-.115-.138-.228-.213-.336-2.808-4.392-5.482-8.243-9.384-10.968-4.615-3.223-10.182-3.906-14.4-1.833-3.424-4.272-9.9-5.285-14.625-3.61-4.96,1.762-8.42,5.713-10.684,9.365a277.106,277.106,0,0,1,3.65-43.666,1.484,1.484,0,0,0,1.1-.521,15.694,15.694,0,0,1,26.553,3.884,1.5,1.5,0,0,0-.5.625c-1.688,4.03-.887,9.228,2.091,13.567,2.583,3.764,6.366,6.561,9.705,9.03a1.5,1.5,0,0,0,.892.294,1.517,1.517,0,0,0,.545-.1,1.5,1.5,0,0,0,.927-1.115,4.269,4.269,0,0,1,.32-.989,4.17,4.17,0,0,1,5.537-2.009,1.5,1.5,0,0,0,2.023-1.926,3.042,3.042,0,0,1,4.824-3.495,1.5,1.5,0,0,0,2.256-1.918c-2.735-4.54-5.835-9.687-10.735-12.894-4.256-2.785-10.742-3.795-15.368-.791a18.648,18.648,0,0,0-29.379-6.1q1.67-8.847,3.959-17.238c.719-2.62,1.456-5.069,2.216-7.384a1.475,1.475,0,0,0,.55-.319c3.978-3.752,8.29-7.547,13.417-9.111,3.832-1.168,8.729-.8,11.924,1.806a6.338,6.338,0,0,0-3.589,6.272c.189,2.621,1.648,4.856,3.2,6.879a78.553,78.553,0,0,0,12.523,13,1.5,1.5,0,0,0,2.087-2.141,1.827,1.827,0,0,1,2.591-2.577,1.5,1.5,0,0,0,2.387-1.659,2.1,2.1,0,0,1,3.66-2.013,1.5,1.5,0,0,0,2.53-1.589c-2.32-4.539-4.72-9.231-8.617-12.81-3.243-2.976-8.4-5.56-13.681-4.558-3.963-4.255-10.743-5.044-15.886-3.476a31.335,31.335,0,0,0-11.058,6.592,71.764,71.764,0,0,1,8.1-15.534,51.933,51.933,0,0,1,5.661-6.771,17.813,17.813,0,0,1,26.615,7.847,1.5,1.5,0,0,0-.067,1.494l-.688,1.482a1.5,1.5,0,0,0-.033,1.188,22.122,22.122,0,0,0,10.2,11.345,1.5,1.5,0,0,0,1.946-2.162,1.193,1.193,0,0,1-.087-1.048,2.737,2.737,0,0,1,1.477-1.63c1.42-.578,3.164-.288,5.132.12a1.5,1.5,0,0,0,1.588-2.242c-1.849-3.074-3.946-6.558-7.262-8.8a10.94,10.94,0,0,0-9.659-1.422,20.657,20.657,0,0,0-21.933-12.1,36.331,36.331,0,0,1,11.434-5.013c10.341-2.459,21.392.795,27.5,8.094.024.028.052.049.077.075a1.458,1.458,0,0,0-.1.424,22.656,22.656,0,0,0,7.256,18.2,1.5,1.5,0,0,0,1.018.4l.083,0a1.5,1.5,0,0,0,1.051-.516,3.436,3.436,0,0,1,3.917-.923,1.5,1.5,0,0,0,1.986-1.9,2.125,2.125,0,0,1,2.122-2.849,1.5,1.5,0,0,0,1.536-1.892ZM260.515,260.2c1.148,6.83-1.854,14.531-8.03,20.6a50.567,50.567,0,0,1-10.419,7.611,49.943,49.943,0,0,0,5.635-10.082,2.084,2.084,0,0,0-.264-2.09,2.172,2.172,0,0,0-1.989-.843,2.023,2.023,0,0,0-1.611,1.25q-.206.492-.424.98a2.017,2.017,0,0,0-1.546-.766,2.116,2.116,0,0,0-2.25,2.059,14.968,14.968,0,0,1-3.557,9.017l10.618-40.088a12.212,12.212,0,0,1,7.293,2.278A15.691,15.691,0,0,1,260.515,260.2Zm-51.233-24.06c3.258-6.009,11.489-7.1,19.113-7.382,5.763-.213,12.743.133,15.6,4.766,1.981,3.209,1.337,7.426.295,11.6a1.494,1.494,0,0,0-.656,2.512l-11.144,42.077a143.717,143.717,0,0,1,.113-19.38,2.176,2.176,0,0,0-2.015-2.321,1.98,1.98,0,0,0-2.17,1.862q-.27,3.764-.347,7.56a70.623,70.623,0,0,1-1.179-16.984,1.977,1.977,0,0,0-1.915-2.12,2.171,2.171,0,0,0-2.294,2.043,75.4,75.4,0,0,0,.016,7.913,74.444,74.444,0,0,0,2.856,16.489,42.63,42.63,0,0,1-6.983-22.366,2.026,2.026,0,0,0-1.046-1.763,2.17,2.17,0,0,0-2.166.058,2.074,2.074,0,0,0-1,1.843,46.256,46.256,0,0,0,.863,7.869h0a47.382,47.382,0,0,0,1.369,5.28,79.08,79.08,0,0,1-8.6-29.186C207.689,243.116,207.607,239.233,209.282,236.143ZM198.645,259.9c-.616-4.548,1.86-10.158,6.4-10.936a1.556,1.556,0,0,0,.208-.058,82.059,82.059,0,0,0,9.089,28.933c-.291-.482-.59-.959-.867-1.452a2.029,2.029,0,0,0-2.8-.758,2.123,2.123,0,0,0-.823,2.916c.295.524.613,1.031.923,1.543-1.705-2.189-3.382-4.39-5.024-6.565C202.746,269.548,199.342,265.043,198.645,259.9Zm35.382,70.264A273.991,273.991,0,0,1,258.7,305.271c-1.594,6.665-3.483,13.352-6.794,19.355-4.139,7.507-10.217,12.851-16.833,14.858a92.535,92.535,0,0,1,14.2-16.439,1.974,1.974,0,0,0,.125-2.85,2.182,2.182,0,0,0-3.075-.157,96.829,96.829,0,0,0-12.077,13.344C234.178,332.309,234.09,331.237,234.027,330.164Zm10.84,62.355c1.8-7.275,6.071-13.677,10.2-19.869,3.192-4.785,6.464-9.691,8.73-15.069,1.44,8.741,2.525,17.657,1.473,26.461-1.225,10.259-5.449,18.97-11.761,24.506a227.338,227.338,0,0,1,6.974-27.421,1.981,1.981,0,0,0-.4-1.963,2.154,2.154,0,0,0-2.053-.636,2.127,2.127,0,0,0-1.6,1.443,229.831,229.831,0,0,0-7.812,31.931c0,.014,0,.029,0,.043a15.9,15.9,0,0,1-2.444-3.557q-1.074-4.377-2.075-8.772A26.9,26.9,0,0,1,244.867,392.519Zm-9.381,56.066a163.349,163.349,0,0,1-16.148-18.9,51.913,51.913,0,0,1,35.592,24.64,1.5,1.5,0,0,0,1.391.727c.126.4.255.79.381,1.186a138.708,138.708,0,0,0-23.239-19.668l-.007-.005a2.188,2.188,0,0,0-3.011.623,1.977,1.977,0,0,0,.55,2.8,135.869,135.869,0,0,1,24.152,20.728,2,2,0,0,0,1.481.671,1.946,1.946,0,0,0,.427-.047,2.08,2.08,0,0,0,1.078-.652q.431,1.329.862,2.656C250.973,460.853,243.064,455.889,235.486,448.585ZM76.35,267.393c3.834,3.495,5.607,8.857,7.171,13.588.861,2.6,1.732,5.245,2.57,7.911-.252-.563-.5-1.129-.766-1.686h0a2.127,2.127,0,0,0-2.879-.976,2.027,2.027,0,0,0-.954,2.735c.244.5.465,1.013.693,1.521a82.026,82.026,0,0,0-18.648-23.923,1.452,1.452,0,0,0,.182-.123C66.939,263.152,72.961,264.3,76.35,267.393ZM28.875,289.711c-2.192-4.983,1.489-10.925,4.94-15.546,4.572-6.11,10.157-12.258,16.943-11.525,3.505.379,6.649,2.654,9.263,4.83a79.058,79.058,0,0,1,19.114,23.641A47.562,47.562,0,0,0,75.582,287h0a46.323,46.323,0,0,0-5.985-5.183,2.1,2.1,0,0,0-2.962.49,2.053,2.053,0,0,0,.445,2.9A42.6,42.6,0,0,1,81.5,303.625a73.8,73.8,0,0,0-18.418-16.189,2.122,2.122,0,0,0-2.146-.072,2.159,2.159,0,0,0-1.16,1.82,1.983,1.983,0,0,0,.967,1.758,70.6,70.6,0,0,1,13.318,10.642q-3.174-2.1-6.439-4.027a1.978,1.978,0,0,0-2-.025,2.157,2.157,0,0,0-1.055,1.874,2.12,2.12,0,0,0,1.065,1.855,143.267,143.267,0,0,1,15.982,10.9L40.657,297.422a1.464,1.464,0,0,0-.369-.779,1.491,1.491,0,0,0-2.029-.1C34.227,295.026,30.384,293.154,28.875,289.711Zm34.067,33.853c-8.5,1.639-16.539-.264-21.51-5.1a15.7,15.7,0,0,1-4.566-11.111,12.22,12.22,0,0,1,2.269-7.295l39.026,14.049a14.951,14.951,0,0,1-9.441-2.193,2.1,2.1,0,0,0-2.13-.1,2.158,2.158,0,0,0-1.179,1.8,1.938,1.938,0,0,0,.088.677q-.526-.1-1.051-.208a2.017,2.017,0,0,0-1.945.609,2.167,2.167,0,0,0-.44,2.115,2.086,2.086,0,0,0,1.569,1.41,50.107,50.107,0,0,0,10.506,1.115c.345,0,.69-.027,1.036-.034A50.934,50.934,0,0,1,62.942,323.564ZM99.33,348c-6.906-.694-13.592-3-20.092-5.528,1.95-.656,3.8-1.362,5.618-2.054,8.412-3.205,16.36-6.231,30.727-2.717.022.005.045.005.067.009.312.246.62.5.931.743A96.8,96.8,0,0,0,98.728,340.8a2.177,2.177,0,0,0-1.614,2.618,1.963,1.963,0,0,0,1.931,1.571,2.151,2.151,0,0,0,.486-.056,92.6,92.6,0,0,1,21.59-2.339C115.711,346.9,107.857,348.859,99.33,348ZM204.325,424.21a51.921,51.921,0,0,1-.043-43.285,162.952,162.952,0,0,1,6.367,24.02c1.7,10.394,1.292,19.726-1.219,27.736-.562-.74-1.133-1.474-1.7-2.213a2.091,2.091,0,0,0,1.159-.528,1.978,1.978,0,0,0,.571-1.916,135.67,135.67,0,0,1-3.331-31.659,1.973,1.973,0,0,0-1.987-2.041,2.193,2.193,0,0,0-2.225,2.128v.006a138.925,138.925,0,0,0,2.977,30.316c-.257-.332-.51-.667-.767-1A1.5,1.5,0,0,0,204.325,424.21Zm-31.284-29.281-.02-.012-.02-.009a229.726,229.726,0,0,0-30.713-11.723,2.132,2.132,0,0,0-2.1.5,2.156,2.156,0,0,0-.639,2.053,1.98,1.98,0,0,0,1.388,1.437,226.329,226.329,0,0,1,26.525,9.848c-8.139,2.044-17.706.567-26.844-4.257-7.843-4.14-14.56-10.094-20.928-16.24,5.715,1.194,11.608,1.287,17.357,1.378,7.081.111,15.108.237,22.147,2.9a26.875,26.875,0,0,1,6.2,3.358q3.089,3.363,6.122,6.778A15.915,15.915,0,0,1,173.041,394.929ZM144.952,404.4c5.447,5.463,10.778,11.219,14.121,18.171,3.106,6.459,4.774,15.847.548,23.388a178.42,178.42,0,0,1-7.239-25.474,1.979,1.979,0,0,0-2.39-1.555,2.179,2.179,0,0,0-1.7,2.555h0a180.763,180.763,0,0,0,5.648,20.985c-4.225-4.745-7.111-11.365-8.337-19.211A98.569,98.569,0,0,1,144.952,404.4Zm-61.7-11.859a64.684,64.684,0,0,1-1.459-11.693c-.1-1.637-.212-3.33-.37-5a42.483,42.483,0,0,0-1.795-9.282c7.186,6.591,13.88,13.977,18.186,22.874,1.82,3.76,2.571,6.644,2.437,9.351a8.86,8.86,0,0,1-3.266,6.594c-.023-.047-.039-.1-.066-.142a60.913,60.913,0,0,1-8.1-23.345,2.1,2.1,0,0,0-1.288-1.685,2.166,2.166,0,0,0-2.148.272,2.007,2.007,0,0,0-.754,1.88,65.372,65.372,0,0,0,7.047,22.139l-2.049-1.262A19.578,19.578,0,0,1,83.25,392.539ZM8.276,343.355a45.774,45.774,0,0,1,30.218,25.922,60.326,60.326,0,0,0-17.245-13.272l-.109-.05a2.108,2.108,0,0,0-2.837,2.51,2.13,2.13,0,0,0,1.05,1.3A55.929,55.929,0,0,1,36.88,373.853a36.737,36.737,0,0,1-28.6-30.5Zm44.5,68.658c-7.71,1.128-16.362.182-26.372-2.886a66.3,66.3,0,0,1,45.257-10.9,251.028,251.028,0,0,0-30.016,9.96h0a2.119,2.119,0,0,0-1.166,2.793,2.042,2.042,0,0,0,1.894,1.3,2.088,2.088,0,0,0,.781-.154,248.276,248.276,0,0,1,29.235-9.735A33.856,33.856,0,0,1,52.777,412.013ZM194.916,483.24c-2.611,1.166-5.67,1.089-8.58.835a72.908,72.908,0,0,1-34.06-12.028,76.262,76.262,0,0,0,14.561-2.279c1.575-.353,3.147-.7,4.718-1.02,8.114-1.63,14.321-1.513,19.178.4q4.731,2.979,9.447,6.005a172.3,172.3,0,0,0-24.53-3.648,2.032,2.032,0,0,0-1.848.873,2.169,2.169,0,0,0-.147,2.159,2.076,2.076,0,0,0,1.739,1.172,167.338,167.338,0,0,1,23.324,3.434A6.934,6.934,0,0,1,194.916,483.24Zm120.477-54.525a25.728,25.728,0,0,1,6.044,6.34,5.2,5.2,0,0,0-1.8.645c-.139.082-.276.17-.406.264-.041.03-.081.061-.118.094a5.132,5.132,0,0,0-1.734,3.553,5.231,5.231,0,0,0,.015.831,8.335,8.335,0,0,0-4.755.68,6.148,6.148,0,0,0-3.113,3.753,27.715,27.715,0,0,1-6.3-6.483c-2.175-3.369-2.706-7.3-1.472-10.256a1.49,1.49,0,0,0,2.2-.981C307.64,425.3,312.306,426.56,315.393,428.715Zm9.554-37.262c3.211,2.1,5.644,5.308,7.735,8.565a6.307,6.307,0,0,0-3.236,1.113,6.189,6.189,0,0,0-2.43,4.675,7.181,7.181,0,0,0-6.834,3.687,32.016,32.016,0,0,1-7.412-7.124c-1.752-2.552-3.133-6.4-2.08-9.908.013,0,.024.006.037.006a1.5,1.5,0,0,0,1.488-1.334C315.75,388.241,321.321,389.08,324.947,391.453Zm3.7-36.076a31.613,31.613,0,0,1,6.075,8.329,5.42,5.42,0,0,0-2.191.6,5.2,5.2,0,0,0-2.471,3.488,4.941,4.941,0,0,0-4,1.294c-.025.023-.049.046-.072.071a4.941,4.941,0,0,0-1.093,1.831,75.686,75.686,0,0,1-9-9.853c-1.178-1.541-2.448-3.347-2.587-5.273-.106-1.479.841-3.284,2.221-3.4a4.162,4.162,0,0,1,2.184-.377,1.5,1.5,0,0,0,.529-.634A13.824,13.824,0,0,1,328.647,355.377Zm12.306-15.882a17.749,17.749,0,0,1,4.68,5.131,8.274,8.274,0,0,0-3.587.532,5.692,5.692,0,0,0-3.194,3.465,19.106,19.106,0,0,1-6.177-7.717l.82-1.767a1.492,1.492,0,0,0,.139-.573C335.879,337.461,338.929,338.122,340.953,339.495Zm22.908-1.723a5.087,5.087,0,0,0-1.681,3.2,6.38,6.38,0,0,0-3.892,1.15,19.657,19.657,0,0,1-5.338-14.83,1.488,1.488,0,0,0,.355.087,15.014,15.014,0,0,1,12.2,9.413A5.116,5.116,0,0,0,363.861,337.772Z" transform="translate(-5.02 -225.715)" fill="#d4d5db"/>
</svg>
