<svg xmlns="http://www.w3.org/2000/svg" width="597.782" height="600.793" viewBox="0 0 597.782 600.793">
  <path id="Path_1270" data-name="Path 1270" d="M486.634,332.707a24.081,24.081,0,0,1-20.408,17.642,1.99,1.99,0,0,1-1.674-.6,1.967,1.967,0,0,1-.178.262c-9.125,10.9-25.516,15.777-40.783,12.152-9.617-2.287-18.767-7.649-26.592-15.43a28.461,28.461,0,0,1-3.171-2.553,1.972,1.972,0,0,1-.612-1.522c-1.569-1.828-3.078-3.747-4.505-5.78-9.1-12.97-13.922-27.934-17.1-39.521-9.386-34.207-12.933-72.309-10.837-116.482,1.507-31.821,5.772-63.68,10.444-94.852L369.4,91.1c-16.036,44.8-32.483,90.811-44.664,138.019a2.1,2.1,0,0,1,.345-.067,2,2,0,0,1,1.428.6,1.943,1.943,0,0,1,.476.883,2.907,2.907,0,0,1,1.6-.491,2.843,2.843,0,0,1,1,.18,2.683,2.683,0,0,1,1.593,1.664c11.265,7.737,18.846,21.6,20.832,38.228,1.791,14.989-.816,29.91-3.336,44.342a2.006,2.006,0,0,1-1.9,1.66h-.076a2.006,2.006,0,0,1-1.943-1.515c-2.431-9.644-8.164-18.239-13.708-26.551-5.234-7.85-11.133-16.708-13.871-26.625-.429,2.054-.875,4.105-1.285,6.163-1.956,9.917-3.489,18.739-4.69,26.975-1.546,10.416-2.756,20.9-3.695,31.417,10.356,2.673,19.865,10.69,26.17,22.125,5.7,10.337,8.336,21.837,10.887,32.959a2.006,2.006,0,0,1-3.26,1.971A370.107,370.107,0,0,1,305.962,348.4q-.947,19.818-.455,39.631c.06.023.12.035.178.063,9.839,4.815,20.011,9.794,28.05,17.693,9.191,9.033,13.633,20.65,11.881,31.074a25.075,25.075,0,0,1-10.435,16.11,20.6,20.6,0,0,1-11.007,3.762c1.392,5.987,2.006,12.058-1.194,17.242-4.906,7.959-15.635,8.6-24.422,8.276-10.662-.389-23.586-2.1-28.935-11.97-2.568-4.734-2.648-10.21-2.276-15.094a2.015,2.015,0,0,1-.546-.008c-8.442-1.447-12.946-11.052-11.853-19.117,1.074-7.919,6.177-14.671,10.275-20.1,5.551-7.35,11.29-14.949,17.682-21.931,5.457-5.956,10.507-8.886,15.344-8.886a11.951,11.951,0,0,1,2.231.233c.269-.259.526-.532.8-.789.043-.04.1-.056.144-.092q-.375-20.2.726-40.441c-.1-.112-.2-.223-.294-.336a2.007,2.007,0,0,1,.209-2.83,1.986,1.986,0,0,1,.29-.2q.233-3.765.519-7.525c-.423-.626-.852-1.245-1.264-1.878l0-.005a2.638,2.638,0,0,1,.8-3.726,2.875,2.875,0,0,1,.956-.382q1.44-16.669,3.865-33.193c1.209-8.3,2.752-17.185,4.723-27.172,1.173-5.891,2.451-11.756,3.782-17.608a31.87,31.87,0,0,1,2.977-12.59c4.219-17.141,9.018-34.116,14.2-50.926A73.463,73.463,0,0,1,282.27,214.2,2.007,2.007,0,0,1,280.461,211c7.668-10.126,15.6-20.6,24.945-29.608,10.6-10.218,21.733-17.181,33.081-20.693a1.981,1.981,0,0,1,.592-.091,2,2,0,0,1,1.587.793c7.986-24.22,16.524-48.1,24.953-71.651l8.239-23.009L320.094,141.66c-14.608,20.354-29.4,40.951-44.762,61.251a2,2,0,0,1,1.828,1.389c3.56,11.327,4.157,24.442,1.776,38.985-2.1,12.82-6.206,25.286-10.179,37.343A2,2,0,0,1,267.035,282a1.98,1.98,0,0,1-1.943-1.035,73.468,73.468,0,0,1-5.3-57.909c-10.892,13.832-22.125,27.426-33.814,40.616a31.891,31.891,0,0,1-8.776,9.722c-10.262,11.165-20.868,22.012-31.944,32.387q-12.18,11.4-25.1,22.051a2.821,2.821,0,0,1-.1,2.4,2.644,2.644,0,0,1-2.288,1.368c-.752.02-1.5.019-2.253.027q-19.984,16.163-41.408,30.381c0,.055,0,.108,0,.162-.058.368-.135.73-.2,1.1,4,3.942,4.945,10.29,2.87,19.389-2.114,9.228-5.106,18.268-8,27.011-2.136,6.458-4.791,14.494-10.694,19.875-6.011,5.479-16.471,7.236-22.463,1.118a1.935,1.935,0,0,1-.3-.461c-3.8,3.086-8.356,6.142-13.734,6.724-11.064,1.182-19.509-7.923-26.3-17-5.269-7.053-10.832-16.245-7.067-24.8,2.436-5.562,7.784-8.513,13.509-10.78a20.612,20.612,0,0,1-3.161-11.2A25.078,25.078,0,0,1,45.9,355.4c5.832-5.669,14.317-8.72,23.675-8.72a45.531,45.531,0,0,1,8.647.844c11.134,2.15,21.421,7.923,30.5,13.017.059.033.11.076.164.115Q125.274,349.932,140.9,338c-15.6,2.264-25.349-1.429-35.572-5.324a124.407,124.407,0,0,0-12.7-4.3,2.006,2.006,0,0,1-.23-3.8c10.622-4.226,21.606-8.6,33.308-9.774q2.83-.283,5.588-.284c10.81,0,20.582,3.255,27.488,9.235q12.168-10.122,23.725-20.895c8.185-7.666,16.1-15.61,23.835-23.733-9.734,3.374-20.331,3.55-29.728,3.7-9.985.158-20.31.32-29.637,3.814a2.006,2.006,0,0,1-2.112-3.308c10.439-10.27,21.231-20.889,34.589-27.939a60.106,60.106,0,0,1,27.816-7.355,43.309,43.309,0,0,1,15.481,2.756,2.8,2.8,0,0,1,3.484,2.66,1.965,1.965,0,0,1,1-.088,2.005,2.005,0,0,1,1.471,1.138C260.524,217.774,289,178.1,316.834,139.32l42.9-59.784C328,109.094,292.094,133.8,255.7,156.885a1.979,1.979,0,0,1-.785,1.007,27.6,27.6,0,0,1-4.64,2.42c-10.907,6.864-21.841,13.6-32.7,20.29l-7.634,4.7c5.691,9.715,5.614,23.18-.313,35.507-5.431,11.292-14.314,20.1-22.906,28.624a2,2,0,0,1-3.415-1.339c-.425-10.023-.864-20.388.727-30.565a59.354,59.354,0,0,1,6.992-20.579L124.2,238.1c4.105,2.333,6.884,7.114,7.154,12.565.279,5.61-1.952,10.935-3.655,14.452-7.685,15.879-20.619,28.141-33.451,39.029a2.006,2.006,0,0,1-2.851-2.8c4.937-6.046,6.233-14.413,6.78-20.18.2-2.168.346-4.4.484-6.559a89.535,89.535,0,0,1,2.066-16.365,36.337,36.337,0,0,1,2.72-7.363l-3.2,1.97a2,2,0,0,1-1.392,1.161c-.257.059-.515.116-.772.171q-22.652,13.949-45.3,27.9a1.982,1.982,0,0,1-1.166.94l-.012.045A65.274,65.274,0,0,1,2.432,329.589a2.005,2.005,0,0,1-2.423-2.15,53.235,53.235,0,0,1,49.863-48.281l37.9-23.34a92.688,92.688,0,0,1-64.8-17.844,2.005,2.005,0,0,1,.555-3.51c11.7-3.949,22.149-5.9,31.662-5.9a63.964,63.964,0,0,1,9.251.655c14.449,2.11,26.776,9.671,33.442,20.376l12.989-8A20.415,20.415,0,0,1,114.6,239.3q43.437-26.748,86.872-53.5c.036-.1.07-.2.106-.3a2.786,2.786,0,0,1,2.629-1.845,2.9,2.9,0,0,1,.619.075l10.645-6.555q11.616-7.153,23.3-14.407a67.737,67.737,0,0,1-16.863-1.529c-2.128-.428-4.259-.905-6.392-1.381-8.244-1.841-16.768-3.746-25.012-2.636a2.006,2.006,0,0,1-1.5-3.574,101.528,101.528,0,0,1,53.1-20.833c1.411-.124,2.9-.218,4.412-.218a22.113,22.113,0,0,1,9.052,1.666,12.971,12.971,0,0,1,7.366,8.255c1.455-.346,2.909-.7,4.354-1.08a2.927,2.927,0,0,1,.727-.094,2.789,2.789,0,0,1,2.358,1.307c36.832-24.108,72.524-50.41,103.117-82.3l2.1-2.919a2,2,0,0,1,1.63-.836,2.027,2.027,0,0,1,.253.039l19.81-55.319a2.006,2.006,0,0,1,3.778,1.353L378.275,66.307c-5.758,37.474-11.673,76.2-13.5,114.761-.353,7.447-.531,14.7-.56,21.811.015,0,.031-.005.045-.005a2.008,2.008,0,0,1,1.784,1.085c2.53,4.9,6.98,11.25,13.819,13.679,4.565,1.621,10.665.907,14.274-2.645a1.976,1.976,0,0,1-.488-.592c-3.445-6.423-1.351-13.853,1.757-18.665,3.407-5.277,8.564-9.14,13.114-12.547a2.006,2.006,0,0,1,2.792,2.828,2.271,2.271,0,0,0-.309,1.926,4.224,4.224,0,0,0,2.12,2.715c1.824.893,4.271.8,7.475-.27a2.006,2.006,0,0,1,2.014,3.363c-.063.059-.123.119-.189.193a2.892,2.892,0,0,0,.177,4.016c.049.033.1.064.144.091a2.9,2.9,0,0,0,3.814-.813c.064-.1.128-.2.191-.3a2.006,2.006,0,0,1,3.425,2.089c-.09.154-.185.3-.285.449-3.755,5.873-7.331,11.023-12.549,14.667-6.171,4.31-13.616,5.223-19.263,2.451-4.579,5.713-13.237,7.067-19.557,4.828-6.633-2.356-11.26-7.64-14.287-12.523a370.559,370.559,0,0,0,4.881,58.392,1.985,1.985,0,0,1,1.474.7,20.987,20.987,0,0,0,35.508-5.194,2,2,0,0,1-.663-.836c-2.257-5.389-1.186-12.34,2.8-18.142,3.454-5.033,8.513-8.774,12.978-12.075a2,2,0,0,1,1.193-.393,2.028,2.028,0,0,1,.729.136,2,2,0,0,1,1.24,1.491,5.7,5.7,0,0,0,.428,1.323,5.577,5.577,0,0,0,7.4,2.687,2,2,0,0,1,2.705,2.575,4.067,4.067,0,0,0,6.451,4.674,2.006,2.006,0,0,1,3.017,2.565c-3.657,6.071-7.8,12.954-14.355,17.242-5.691,3.724-14.365,5.075-20.551,1.058a24.937,24.937,0,0,1-39.287,8.155q2.233,11.831,5.294,23.051c.961,3.5,1.947,6.779,2.963,9.874a1.973,1.973,0,0,1,.735.427c5.32,5.017,11.086,10.092,17.942,12.184,5.124,1.562,11.673,1.066,15.945-2.415-3.2-1.276-5.041-5.013-4.8-8.387.253-3.5,2.2-6.494,4.274-9.2a105.045,105.045,0,0,1,16.746-17.38,2.006,2.006,0,0,1,2.791,2.863,2.444,2.444,0,0,0,3.465,3.446,2.005,2.005,0,0,1,3.192,2.218,2.806,2.806,0,0,0,4.894,2.692,2.005,2.005,0,0,1,3.383,2.125c-3.1,6.07-6.312,12.344-11.523,17.13-4.337,3.98-11.236,7.435-18.295,6.1-5.3,5.69-14.366,6.745-21.244,4.648-5.606-1.71-10.4-5.057-14.787-8.815a95.966,95.966,0,0,0,10.834,20.773,69.445,69.445,0,0,0,7.57,9.055,23.82,23.82,0,0,0,35.591-10.493,2,2,0,0,1-.09-2l-.92-1.982a2.007,2.007,0,0,1-.044-1.589A29.583,29.583,0,0,1,447.738,312.4a2.005,2.005,0,0,1,2.6,2.891,1.6,1.6,0,0,0-.116,1.4,3.659,3.659,0,0,0,1.975,2.18c1.9.773,4.231.385,6.863-.16a2,2,0,0,1,2.124,3c-2.473,4.111-5.277,8.77-9.711,11.772-3.556,2.411-8.668,3.532-12.916,1.9a27.623,27.623,0,0,1-29.33,16.177,48.584,48.584,0,0,0,15.29,6.7c13.828,3.288,28.606-1.063,36.778-10.824.032-.037.07-.066.1-.1a1.948,1.948,0,0,1-.132-.567,30.3,30.3,0,0,1,9.7-24.339,2,2,0,0,1,1.361-.532l.111,0a2.007,2.007,0,0,1,1.405.69,4.594,4.594,0,0,0,5.238,1.234,2.007,2.007,0,0,1,2.656,2.539,2.841,2.841,0,0,0,2.838,3.81,2.007,2.007,0,0,1,2.054,2.53ZM341.66,436.193c1.535-9.133-2.479-19.432-10.738-27.549a67.621,67.621,0,0,0-13.933-10.178,66.786,66.786,0,0,1,7.535,13.482,2.787,2.787,0,0,1-.353,2.795,2.9,2.9,0,0,1-2.66,1.127,2.7,2.7,0,0,1-2.154-1.672q-.275-.658-.567-1.311a2.7,2.7,0,0,1-2.067,1.024,2.829,2.829,0,0,1-3.009-2.753,20.016,20.016,0,0,0-4.757-12.058l14.2,53.608a16.331,16.331,0,0,0,9.753-3.046A20.983,20.983,0,0,0,341.66,436.193Zm-68.511,32.174c4.357,8.036,15.364,9.5,25.559,9.872,7.707.285,17.041-.178,20.858-6.373,2.649-4.291,1.788-9.93.394-15.505a2,2,0,0,1-.877-3.359l-14.9-56.267a192.189,192.189,0,0,0,.151,25.916,2.909,2.909,0,0,1-2.695,3.1,2.648,2.648,0,0,1-2.9-2.49q-.361-5.033-.464-10.11a94.44,94.44,0,0,0-1.577,22.712,2.644,2.644,0,0,1-2.561,2.835,2.9,2.9,0,0,1-3.068-2.732,100.829,100.829,0,0,1,.021-10.582,99.546,99.546,0,0,1,3.819-22.05,57.007,57.007,0,0,0-9.338,29.909,2.709,2.709,0,0,1-1.4,2.358,2.9,2.9,0,0,1-2.9-.078,2.773,2.773,0,0,1-1.337-2.465,61.86,61.86,0,0,1,1.154-10.523h0a63.376,63.376,0,0,1,1.831-7.061,105.75,105.75,0,0,0-11.5,39.029C271.019,459.042,270.909,464.235,273.149,468.367ZM258.924,436.6c-.824,6.082,2.487,13.584,8.554,14.624a2.083,2.083,0,0,1,.278.078,109.733,109.733,0,0,1,12.154-38.691c-.389.645-.789,1.282-1.159,1.942a2.713,2.713,0,0,1-3.742,1.014,2.84,2.84,0,0,1-1.1-3.9c.394-.7.82-1.379,1.234-2.063-2.28,2.927-4.523,5.871-6.718,8.779C264.409,423.7,259.857,429.721,258.924,436.6Zm47.314-93.96a366.4,366.4,0,0,0,33,33.288c-2.132-8.913-4.658-17.855-9.085-25.882-5.535-10.039-13.663-17.185-22.51-19.869a123.743,123.743,0,0,0,18.986,21.983,2.64,2.64,0,0,1,.167,3.811,2.918,2.918,0,0,1-4.112.21,129.485,129.485,0,0,1-16.15-17.844C306.441,339.769,306.323,341.2,306.239,342.638Zm14.5-83.384c2.41,9.729,8.118,18.29,13.641,26.57,4.269,6.4,8.644,12.959,11.674,20.151,1.926-11.689,3.377-23.612,1.97-35.385-1.638-13.719-7.287-25.368-15.727-32.771a304.02,304.02,0,0,0,9.326,36.669,2.649,2.649,0,0,1-.532,2.625,2.881,2.881,0,0,1-2.745.85,2.845,2.845,0,0,1-2.134-1.93,307.34,307.34,0,0,1-10.447-42.7c0-.019,0-.039,0-.057a21.261,21.261,0,0,0-3.268,4.757q-1.436,5.853-2.775,11.73A35.975,35.975,0,0,0,320.735,259.254ZM308.19,184.279c-7.95,7.662-14.921,16.5-21.594,25.27a69.421,69.421,0,0,0,47.6-32.95,2,2,0,0,1,1.86-.972c.168-.53.341-1.056.509-1.586a185.492,185.492,0,0,1-31.076,26.3l-.009.007a2.925,2.925,0,0,1-4.026-.833,2.643,2.643,0,0,1,.735-3.74,181.69,181.69,0,0,0,32.3-27.718,2.675,2.675,0,0,1,1.98-.9,2.6,2.6,0,0,1,.571.063,2.781,2.781,0,0,1,1.442.872q.576-1.777,1.153-3.552C328.9,167.874,318.324,174.512,308.19,184.279Zm-212.8,242.3c5.127-4.674,7.5-11.844,9.589-18.17,1.151-3.482,2.316-7.014,3.437-10.579-.337.753-.663,1.51-1.024,2.255h0a2.844,2.844,0,0,1-3.85,1.305,2.71,2.71,0,0,1-1.276-3.657c.326-.673.622-1.355.927-2.034A109.69,109.69,0,0,1,78.25,427.688a1.939,1.939,0,0,1,.243.164C82.8,432.249,90.854,430.71,95.386,426.578ZM31.9,396.733c-2.931,6.664,1.991,14.609,6.606,20.789,6.114,8.171,13.582,16.392,22.657,15.412,4.687-.507,8.891-3.549,12.387-6.459a105.72,105.72,0,0,0,25.56-31.614,63.589,63.589,0,0,1-4.751,5.5h0a61.943,61.943,0,0,1-8,6.931,2.814,2.814,0,0,1-3.961-.655,2.745,2.745,0,0,1,.6-3.873,56.962,56.962,0,0,0,19.287-24.635,98.691,98.691,0,0,1-24.629,21.649,2.838,2.838,0,0,1-2.87.1,2.887,2.887,0,0,1-1.551-2.434,2.652,2.652,0,0,1,1.293-2.351,94.415,94.415,0,0,0,17.809-14.231q-4.244,2.806-8.611,5.385a2.645,2.645,0,0,1-2.681.033,2.884,2.884,0,0,1-1.411-2.506,2.835,2.835,0,0,1,1.424-2.481,191.587,191.587,0,0,0,21.372-14.581L47.655,386.422a1.957,1.957,0,0,1-.493,1.042,1.994,1.994,0,0,1-2.713.128C39.057,389.626,33.918,392.129,31.9,396.733Zm45.556-45.27c-11.365-2.192-22.117.353-28.764,6.815a20.99,20.99,0,0,0-6.106,14.858,16.342,16.342,0,0,0,3.034,9.755L97.808,364.1a19.994,19.994,0,0,0-12.625,2.933,2.813,2.813,0,0,1-2.848.128,2.886,2.886,0,0,1-1.577-2.411,2.591,2.591,0,0,1,.118-.905q-.7.13-1.405.278a2.7,2.7,0,0,1-2.6-.814,2.9,2.9,0,0,1-.588-2.828,2.789,2.789,0,0,1,2.1-1.886,67.007,67.007,0,0,1,14.049-1.491c.461,0,.923.036,1.385.045A68.113,68.113,0,0,0,77.456,351.464Zm48.66-32.678c-9.235.928-18.176,4.016-26.868,7.392,2.608.877,5.084,1.821,7.513,2.747,11.249,4.286,21.877,8.332,41.09,3.633.029-.007.06-.007.09-.012.417-.329.829-.663,1.245-.994a129.445,129.445,0,0,1-23.874-3.144,2.911,2.911,0,0,1-2.158-3.5,2.626,2.626,0,0,1,2.582-2.1,2.875,2.875,0,0,1,.65.075,123.827,123.827,0,0,0,28.871,3.128C148.021,320.26,137.518,317.638,126.116,318.785Zm140.4-101.91a69.431,69.431,0,0,0-.058,57.883c3.419-10.465,6.729-21.218,8.514-32.121,2.276-13.9,1.728-26.379-1.63-37.09-.752.99-1.515,1.971-2.269,2.959a2.8,2.8,0,0,1,1.55.706,2.645,2.645,0,0,1,.764,2.562,181.423,181.423,0,0,0-4.454,42.336,2.639,2.639,0,0,1-2.657,2.729,2.933,2.933,0,0,1-2.975-2.846v-.008a185.779,185.779,0,0,1,3.981-40.54c-.344.444-.682.892-1.026,1.336A2,2,0,0,1,266.52,216.875Zm-41.834,39.156-.027.016-.027.012a307.2,307.2,0,0,1-41.071,15.677,2.851,2.851,0,0,1-2.8-.665,2.883,2.883,0,0,1-.854-2.745,2.648,2.648,0,0,1,1.856-1.922,302.659,302.659,0,0,0,35.47-13.169c-10.884-2.733-23.677-.758-35.9,5.693-10.488,5.536-19.47,13.5-27.986,21.717,7.642-1.6,15.523-1.721,23.211-1.843,9.469-.148,20.2-.317,29.616-3.878a35.939,35.939,0,0,0,8.295-4.491q4.13-4.5,8.187-9.064A21.284,21.284,0,0,0,224.686,256.031Zm-37.562-12.662c7.284-7.305,14.413-15,18.883-24.3,4.154-8.637,6.384-21.191.733-31.276a238.589,238.589,0,0,0-9.68,34.065,2.647,2.647,0,0,1-3.2,2.079,2.914,2.914,0,0,1-2.275-3.417h0a241.722,241.722,0,0,1,7.553-28.062c-5.65,6.345-9.509,15.2-11.149,25.69C186.7,226.428,186.807,234.98,187.124,243.368Zm-82.511,15.858a86.5,86.5,0,0,0-1.951,15.636c-.139,2.189-.284,4.453-.495,6.682a56.809,56.809,0,0,1-2.4,12.412c9.609-8.814,18.561-18.691,24.319-30.588,2.434-5.028,3.438-8.885,3.259-12.5-.154-3.112-1.57-6.795-4.367-8.818-.031.063-.052.128-.088.19a81.456,81.456,0,0,0-10.834,31.218,2.8,2.8,0,0,1-1.722,2.253,2.9,2.9,0,0,1-2.872-.364,2.684,2.684,0,0,1-1.008-2.514,87.419,87.419,0,0,1,9.424-29.605l-2.74,1.688C109.209,248.009,106.185,253.023,104.613,259.227ZM4.354,325a61.211,61.211,0,0,0,40.409-34.664A80.67,80.67,0,0,1,21.7,308.082l-.146.067a2.819,2.819,0,0,1-3.794-3.356,2.849,2.849,0,0,1,1.4-1.742A74.791,74.791,0,0,0,42.6,284.215,49.127,49.127,0,0,0,4.354,325Zm59.509-91.813c-10.31-1.508-21.88-.243-35.266,3.859a88.656,88.656,0,0,0,60.52,14.581,335.684,335.684,0,0,1-40.139-13.319h0a2.834,2.834,0,0,1-1.559-3.735,2.73,2.73,0,0,1,2.533-1.737,2.793,2.793,0,0,1,1.044.206,332.011,332.011,0,0,0,39.094,13.018C83.682,239.363,74.4,234.724,63.863,233.185Zm190.075-95.248c-3.492-1.559-7.582-1.456-11.474-1.117A97.5,97.5,0,0,0,196.918,152.9c6.591.17,13.113,1.626,19.472,3.048,2.106.472,4.208.941,6.309,1.364,10.85,2.18,19.151,2.023,25.646-.531q6.326-3.984,12.633-8.03a230.406,230.406,0,0,1-32.8,4.878,2.718,2.718,0,0,1-2.471-1.167,2.9,2.9,0,0,1-.2-2.887,2.776,2.776,0,0,1,2.325-1.567,223.764,223.764,0,0,0,31.19-4.592A9.272,9.272,0,0,0,253.938,137.937Zm161.108,72.913a34.406,34.406,0,0,0,8.082-8.478,6.95,6.95,0,0,1-2.408-.863c-.186-.11-.369-.227-.543-.353-.055-.04-.108-.082-.158-.126a6.863,6.863,0,0,1-2.319-4.751,6.993,6.993,0,0,1,.02-1.111,11.145,11.145,0,0,1-6.359-.909,8.222,8.222,0,0,1-4.163-5.019,37.062,37.062,0,0,0-8.422,8.669c-2.908,4.505-3.619,9.761-1.968,13.715a1.992,1.992,0,0,1,2.946,1.312C404.678,215.424,410.917,213.732,415.045,210.851Zm12.776,49.829c4.294-2.811,7.547-7.1,10.344-11.454a8.435,8.435,0,0,1-4.327-1.488,8.276,8.276,0,0,1-3.25-6.252,9.6,9.6,0,0,1-9.139-4.93c-3.708,2.789-7.336,5.772-9.912,9.527-2.343,3.413-4.19,8.564-2.781,13.249.017,0,.032-.008.049-.008a2,2,0,0,1,1.99,1.784C415.523,264.974,422.973,263.852,427.821,260.679Zm4.948,48.242a42.273,42.273,0,0,0,8.124-11.138,7.248,7.248,0,0,1-2.93-.8,6.958,6.958,0,0,1-3.3-4.664,6.608,6.608,0,0,1-5.346-1.73c-.033-.031-.066-.062-.1-.095a6.609,6.609,0,0,1-1.462-2.449,101.212,101.212,0,0,0-12.033,13.176c-1.575,2.061-3.274,4.476-3.459,7.051-.142,1.978,1.125,4.392,2.97,4.541a5.566,5.566,0,0,0,2.921.5,2,2,0,0,1,.707.848C423.41,314.636,428.625,312.726,432.769,308.922Zm16.456,21.238a23.735,23.735,0,0,0,6.258-6.861,11.064,11.064,0,0,1-4.8-.711,7.611,7.611,0,0,1-4.271-4.634,25.549,25.549,0,0,0-8.26,10.32l1.1,2.363a2,2,0,0,1,.186.766C442.44,332.88,446.519,332,449.225,330.16Zm30.634,2.3a6.8,6.8,0,0,1-2.248-4.274,8.532,8.532,0,0,1-5.2-1.538,26.287,26.287,0,0,0-7.138,19.831,1.992,1.992,0,0,1,.475-.116,20.077,20.077,0,0,0,16.313-12.587A6.841,6.841,0,0,1,479.859,332.464Z" transform="translate(597.782 132.943) rotate(106)" fill="#d4d5db"/>
</svg>
