<svg xmlns="http://www.w3.org/2000/svg" width="48.149" height="48.283" viewBox="0 0 48.149 48.283"><defs><style>.a,.b,.d{fill:none;}.a,.b{stroke:#92ac78;stroke-linecap:round;stroke-width:3px;}.a{stroke-linejoin:round;}.c{stroke:none;}</style></defs><g transform="translate(1.5 1.5)"><g class="a" transform="translate(9.575 9.485)"><circle class="c" cx="13" cy="13" r="13"/><circle class="d" cx="13" cy="13" r="11.5"/></g><path class="b" d="M128,6565.547v10.327" transform="translate(-105.425 -6565.547)"/><path class="b" d="M0,0V10.327" transform="translate(0 21.783) rotate(-90)"/><path class="b" d="M0,0V10.327" transform="translate(34.822 21.783) rotate(-90)"/><path class="b" d="M128,6575.874v-10.327" transform="translate(-105.425 -6530.591)"/><path class="b" d="M0,0V10.327" transform="matrix(0.719, -0.695, 0.695, 0.719, 6.326, 6.197)"/><path class="b" d="M0,10.327V0" transform="matrix(0.719, 0.695, -0.695, 0.719, 13.5, 30.865)"/><path class="b" d="M0,0V10.327" transform="matrix(-0.719, 0.695, -0.695, -0.719, 38.825, 38.294)"/><path class="b" d="M0,10.327V0" transform="matrix(0.719, 0.695, -0.695, 0.719, 38.033, 6.331)"/></g></svg>